<svg xmlns="http://www.w3.org/2000/svg" viewBox="0 0 1440 810" preserveAspectRatio="xMidYMid slice">
  <defs>
    <linearGradient id="bg" x1="0" y1="0" x2="1" y2="1">
      <stop offset="0%" stop-color="hsl(222, 89%, 56%)" stop-opacity="0.25"/>
      <stop offset="100%" stop-color="hsl(210, 40%, 96%)" stop-opacity="0.1"/>
    </linearGradient>
    <radialGradient id="glow" cx="0.5" cy="0.5" r="0.6">
      <stop offset="0%" stop-color="hsl(0, 0%, 100%)" stop-opacity="0.3"/>
      <stop offset="100%" stop-color="hsl(0, 0%, 100%)" stop-opacity="0"/>
    </radialGradient>
  </defs>

  <rect width="100%" height="100%" fill="url(#bg)"/>
  <circle cx="75%" cy="25%" r="280" fill="url(#glow)"/>
  <circle cx="20%" cy="70%" r="220" fill="url(#glow)"/>

  <!-- Stylized car silhouette -->
  <g transform="translate(120, 460)">
    <path d="M0 40 C 120 0, 260 -20, 400 -10 C 520 -2, 700 -8, 860 -20 C 930 -26, 1020 -12, 1100 10 C 1160 28, 1220 56, 1260 90 C 1288 114, 1296 138, 1288 152 C 1276 172, 1250 176, 1218 176 L 60 176 C 24 176, 2 166, 0 148 C -6 120, 20 94, 52 80 C 102 58, 152 46, 200 44 Z" fill="hsl(0, 0%, 100%)" fill-opacity="0.06"/>
    <path d="M240 80 C 280 50, 360 36, 460 32 L 760 26 C 840 24, 920 38, 980 64 C 1000 72, 1014 90, 1012 102 C 1008 124, 980 128, 952 128 L 284 128 C 252 128, 236 118, 232 100 C 228 90, 230 86, 240 80 Z" fill="hsl(222, 89%, 56%)" fill-opacity="0.12"/>

    <!-- Wheels removed to avoid showing behind overlaid PNG -->

    <!-- Accent line -->
    <path d="M180 96 L 1080 82" stroke="hsl(0, 84%, 60%)" stroke-opacity="0.25" stroke-width="6" stroke-linecap="round"/>
  </g>
</svg>
